<svg width="18" height="20" viewBox="0 0 18 20" fill="none" xmlns="http://www.w3.org/2000/svg">
<path d="M14.3332 8.00002H13.3332V7.76085C13.6693 7.38069 13.8899 6.91242 13.9689 6.41115C14.0479 5.90988 13.9821 5.39646 13.7792 4.93132C13.5763 4.46618 13.2448 4.06868 12.8237 3.78559C12.4025 3.50249 11.9092 3.34559 11.4019 3.33335C11.1892 2.59087 10.794 1.91346 10.2523 1.36294C9.82899 0.929661 9.32298 0.585774 8.76429 0.351661C8.20559 0.117549 7.60559 -0.00202548 6.99983 2.5955e-05C5.75358 2.5955e-05 4.59233 0.511692 3.70817 1.44502C3.27422 1.30676 2.80929 1.29851 2.37071 1.42131C1.93213 1.5441 1.53907 1.79257 1.24 2.13607C0.940938 2.47956 0.748938 2.90308 0.687678 3.35439C0.626418 3.80569 0.698576 4.26506 0.895255 4.67585C0.579632 4.95599 0.335107 5.30712 0.181837 5.70031C0.0285677 6.09351 -0.0290578 6.5175 0.0137113 6.93733C0.0564804 7.35717 0.198419 7.76083 0.427827 8.11504C0.657236 8.46925 0.967543 8.76386 1.33317 8.9746V17.6667C1.33383 18.2853 1.57988 18.8784 2.01732 19.3159C2.45476 19.7533 3.04787 19.9993 3.6665 20H10.9998C11.6185 19.9993 12.2116 19.7533 12.649 19.3159C13.0864 18.8784 13.3325 18.2853 13.3332 17.6667V17.3333H14.3332C15.1285 17.3325 15.8911 17.0161 16.4535 16.4537C17.0159 15.8913 17.3323 15.1287 17.3332 14.3333V11C17.3323 10.2046 17.0159 9.44209 16.4535 8.87967C15.8911 8.31725 15.1285 8.0009 14.3332 8.00002ZM5.33317 16.6667C5.33317 16.8435 5.26293 17.0131 5.1379 17.1381C5.01288 17.2631 4.84331 17.3333 4.6665 17.3333C4.48969 17.3333 4.32012 17.2631 4.1951 17.1381C4.07007 17.0131 3.99983 16.8435 3.99983 16.6667V10C3.99983 9.8232 4.07007 9.65363 4.1951 9.52861C4.32012 9.40359 4.48969 9.33335 4.6665 9.33335C4.84331 9.33335 5.01288 9.40359 5.1379 9.52861C5.26293 9.65363 5.33317 9.8232 5.33317 10V16.6667ZM7.99983 16.6667C7.99983 16.8435 7.92959 17.0131 7.80457 17.1381C7.67954 17.2631 7.50997 17.3333 7.33316 17.3333C7.15635 17.3333 6.98678 17.2631 6.86176 17.1381C6.73674 17.0131 6.6665 16.8435 6.6665 16.6667V10C6.6665 9.8232 6.73674 9.65363 6.86176 9.52861C6.98678 9.40359 7.15635 9.33335 7.33316 9.33335C7.50997 9.33335 7.67954 9.40359 7.80457 9.52861C7.92959 9.65363 7.99983 9.8232 7.99983 10V16.6667ZM10.6665 16.6667C10.6665 16.8435 10.5963 17.0131 10.4712 17.1381C10.3462 17.2631 10.1766 17.3333 9.99983 17.3333C9.82302 17.3333 9.65345 17.2631 9.52842 17.1381C9.4034 17.0131 9.33316 16.8435 9.33316 16.6667V10C9.33316 9.8232 9.4034 9.65363 9.52842 9.52861C9.65345 9.40359 9.82302 9.33335 9.99983 9.33335C10.1766 9.33335 10.3462 9.40359 10.4712 9.52861C10.5963 9.65363 10.6665 9.8232 10.6665 10V16.6667ZM11.3332 7.33335C10.9861 7.33335 10.4769 7.11752 10.2211 6.8621C10.0961 6.73706 9.92661 6.66677 9.74983 6.66668H4.6665C4.52993 6.66699 4.39674 6.70924 4.28496 6.78771C4.17318 6.86618 4.08819 6.97709 4.0415 7.10543C3.75692 7.88377 3.05817 8.00002 2.6665 8.00002C2.31288 8.00002 1.97374 7.85954 1.7237 7.60949C1.47365 7.35944 1.33317 7.02031 1.33317 6.66668C1.33317 6.31306 1.47365 5.97392 1.7237 5.72388C1.97374 5.47383 2.31288 5.33335 2.6665 5.33335C2.67025 5.33335 3.0465 5.34752 3.34984 5.57502C3.41987 5.62755 3.49957 5.66577 3.58438 5.68749C3.66919 5.70922 3.75745 5.71403 3.84412 5.70165C3.93078 5.68927 4.01416 5.65994 4.0895 5.61533C4.16483 5.57073 4.23064 5.51172 4.28317 5.44169C4.3357 5.37165 4.37392 5.29195 4.39564 5.20714C4.41737 5.12233 4.42218 5.03407 4.4098 4.94741C4.39742 4.86074 4.36809 4.77736 4.32348 4.70202C4.27888 4.62669 4.21987 4.56088 4.14983 4.50835C3.71788 4.19337 3.20086 4.01619 2.6665 4.00002C2.47024 4.00014 2.27459 4.02208 2.08317 4.06544C2.01702 3.9133 1.98976 3.7471 2.00384 3.5818C2.01792 3.41651 2.0729 3.25731 2.16384 3.11856C2.25477 2.97981 2.37879 2.86586 2.52473 2.78697C2.67067 2.70809 2.83394 2.66675 2.99984 2.66669C3.15733 2.66593 3.31274 2.70273 3.45317 2.77403C3.5936 2.84534 3.71501 2.94909 3.80733 3.07669C3.88247 3.18032 3.94815 3.29048 4.00358 3.40585C4.02167 3.57575 4.10431 3.73222 4.23442 3.84296C4.36453 3.95369 4.5322 4.01025 4.7028 4.00095C4.87341 3.99164 5.03393 3.91719 5.15123 3.79296C5.26853 3.66874 5.33366 3.50421 5.33317 3.33335C5.33317 3.05127 5.18275 2.70127 4.88483 2.29169C4.86567 2.26544 4.84317 2.23961 4.82442 2.21419C5.43275 1.64336 6.19317 1.33336 6.99983 1.33336C7.42853 1.33212 7.85311 1.41697 8.24841 1.58288C8.64371 1.74879 9.00167 1.99237 9.30108 2.29919C9.67554 2.68341 9.95199 3.15214 10.107 3.66576C10.2621 4.17937 10.2912 4.72278 10.1919 5.25002C10.1755 5.33604 10.1763 5.42444 10.1941 5.51017C10.2119 5.5959 10.2464 5.67729 10.2956 5.74968C10.3449 5.82207 10.4079 5.88405 10.4811 5.93208C10.5543 5.98011 10.6363 6.01325 10.7223 6.0296C10.7635 6.03734 10.8054 6.04125 10.8473 6.04127C11.0023 6.04111 11.1524 5.98695 11.2718 5.88809C11.3912 5.78923 11.4724 5.65186 11.5015 5.4996C11.5523 5.23278 11.5796 4.96202 11.5832 4.69044C11.909 4.75278 12.2 4.93439 12.3991 5.19978C12.5982 5.46516 12.6913 5.79526 12.66 6.12558C12.6288 6.4559 12.4755 6.7627 12.2301 6.98604C11.9848 7.20938 11.6649 7.33322 11.3332 7.33335ZM15.9998 14.3333C15.9998 14.7754 15.8242 15.1993 15.5117 15.5118C15.1991 15.8244 14.7752 16 14.3332 16H13.3332V9.33335H14.3332C14.7752 9.33335 15.1991 9.50894 15.5117 9.8215C15.8242 10.1341 15.9998 10.558 15.9998 11V14.3333Z" fill="white"/>
</svg>
